<svg xmlns="http://www.w3.org/2000/svg" viewBox="0 0 39.937 49.91875" x="0px" y="0px"><path data-name="Path 20063" d="M10.879,10.881a2.5,2.5,0,0,1,3.532,0l9.61,9.61a2.5,2.5,0,0,1-3.529,3.532l-9.61-9.61a2.5,2.5,0,0,1,0-3.532Z" transform="translate(15.184 15.182)" fill-rule="evenodd"/><path data-name="Path 20064" d="M16.224,29.952A13.728,13.728,0,1,0,2.5,16.224,13.728,13.728,0,0,0,16.224,29.952ZM32.448,16.224A16.224,16.224,0,1,1,16.224,0,16.224,16.224,0,0,1,32.448,16.224Z" transform="translate(0)" fill-rule="evenodd"/><text x="0" y="54.935" fill="#000000" font-size="5px" font-weight="bold" font-family="'Helvetica Neue', Helvetica, Arial-Unicode, Arial, Sans-serif">Created by Imran shaikh</text><text x="0" y="59.935" fill="#000000" font-size="5px" font-weight="bold" font-family="'Helvetica Neue', Helvetica, Arial-Unicode, Arial, Sans-serif">from the Noun Project</text></svg>